<?xml version="1.0" standalone="no"?>
<!DOCTYPE svg PUBLIC "-//W3C//DTD SVG 20010904//EN"
 "http://www.w3.org/TR/2001/REC-SVG-20010904/DTD/svg10.dtd">
<svg version="1.0" xmlns="http://www.w3.org/2000/svg"
 width="320.000000pt" height="320.000000pt" viewBox="0 0 320.000000 320.000000"
 preserveAspectRatio="xMidYMid meet">

<g transform="translate(0.000000,320.000000) scale(0.100000,-0.100000)"
fill="#000000" stroke="none">
<path d="M507 2483 c-18 -18 -5 -42 26 -48 51 -12 84 -32 105 -67 18 -30 211
-634 297 -928 20 -69 38 -133 41 -143 4 -13 14 -17 36 -15 l29 3 147 443 c80
243 149 442 153 442 5 0 165 -440 289 -797 31 -88 34 -93 61 -93 27 0 30 4 58
98 128 423 224 729 231 742 14 23 13 -669 -1 -710 -13 -37 -57 -60 -114 -60
-31 0 -35 -3 -35 -25 l0 -25 250 0 250 0 0 25 c0 23 -4 25 -40 25 -51 0 -105
22 -119 48 -12 22 -16 412 -5 412 3 0 34 -7 68 -16 166 -44 362 29 443 165 84
140 64 336 -44 431 -93 82 -216 103 -578 98 -223 -3 -230 -4 -233 -23 -2 -17
6 -23 55 -35 44 -12 61 -21 72 -42 14 -25 12 -39 -27 -195 -51 -203 -168 -603
-180 -615 -7 -7 -68 158 -275 744 -49 138 -54 148 -78 148 -28 0 -14 37 -237
-652 -42 -131 -81 -236 -86 -235 -5 2 -33 81 -61 177 -190 629 -190 630 -154
653 13 8 41 18 62 21 31 6 37 11 37 31 l0 25 -218 0 c-120 0 -222 -3 -225 -7z
m1888 -77 c99 -47 147 -129 147 -254 0 -43 -5 -95 -11 -118 -16 -60 -65 -127
-112 -153 -46 -26 -139 -38 -213 -27 l-46 7 2 272 3 271 25 13 c43 22 148 16
205 -11z"/>
<path d="M2296 1062 c-8 -13 6 -92 15 -86 12 7 11 94 0 94 -6 0 -12 -4 -15 -8z"/>
<path d="M930 1038 c0 -5 7 -8 15 -8 8 0 15 -7 15 -16 0 -21 -51 -197 -60
-207 -4 -4 -26 47 -50 113 -23 67 -46 118 -50 113 -4 -4 -24 -59 -45 -122 -23
-69 -40 -108 -45 -100 -4 8 -20 58 -35 112 -24 84 -27 100 -14 108 9 6 -1 9
-34 9 -41 0 -46 -2 -35 -14 8 -7 34 -77 58 -155 24 -77 47 -141 51 -141 4 0
25 52 46 115 20 63 40 115 44 115 3 0 22 -48 43 -107 20 -60 41 -114 45 -122
7 -10 17 12 36 75 44 151 66 208 86 224 18 14 16 15 -26 15 -25 0 -45 -3 -45
-7z"/>
<path d="M1284 1036 c-64 -28 -104 -114 -90 -191 9 -47 62 -100 115 -116 38
-11 50 -11 92 4 45 17 52 17 96 2 117 -40 219 34 217 157 -1 46 -6 64 -29 94
-46 60 -126 80 -200 50 -30 -13 -38 -13 -62 -1 -35 18 -98 19 -139 1z m119
-16 c25 -20 25 -22 11 -55 -18 -45 -18 -122 1 -159 21 -39 19 -43 -16 -61 -77
-40 -159 38 -159 151 0 116 88 183 163 124z m210 0 c37 -29 61 -99 55 -161
-11 -107 -96 -159 -167 -102 -21 17 -21 20 -7 55 21 49 20 109 -1 152 -16 34
-16 37 2 56 24 27 84 27 118 0z m-153 -132 c0 -38 -3 -49 -10 -38 -16 25 -11
90 7 90 2 0 3 -24 3 -52z"/>
<path d="M2010 1040 c0 -4 13 -10 29 -13 34 -7 56 -52 46 -96 -7 -34 -22 -49
-62 -61 l-28 -8 28 -1 c35 -1 83 23 97 48 15 30 12 76 -8 101 -17 21 -102 46
-102 30z"/>
<path d="M2543 1040 c-27 -11 -43 -40 -43 -78 0 -32 37 -71 99 -104 55 -30 60
-88 8 -118 -33 -18 -69 -3 -98 42 l-21 33 6 -35 c8 -44 15 -51 62 -56 49 -6
105 22 118 60 16 43 -4 77 -68 121 -76 52 -86 67 -66 103 24 41 68 42 101 2
l26 -31 -5 28 c-3 15 -10 31 -16 35 -15 10 -76 9 -103 -2z"/>
<path d="M1924 1024 c13 -12 16 -40 16 -137 0 -124 -3 -140 -30 -150 -8 -3 14
-5 50 -6 47 0 59 3 43 9 -17 7 -22 18 -25 65 -1 31 0 59 5 62 4 2 5 8 2 13 -3
5 -6 39 -6 75 -1 47 3 70 12 76 9 6 -3 9 -34 9 -44 0 -47 -1 -33 -16z"/>
</g>
</svg>
